<?xml version="1.0" encoding="UTF-8"?>
<!DOCTYPE svg PUBLIC "-//W3C//DTD SVG 1.1//EN" "http://www.w3.org/Graphics/SVG/1.1/DTD/svg11.dtd">
<svg xmlns="http://www.w3.org/2000/svg" version="1.1" width="1786px" height="1586px" style="shape-rendering:geometricPrecision; text-rendering:geometricPrecision; image-rendering:optimizeQuality; fill-rule:evenodd; clip-rule:evenodd" xmlns:xlink="http://www.w3.org/1999/xlink">
<g><path style="opacity:0.997" fill="#fefffe" d="M 567.5,2.5 C 611.606,1.62725 641.773,21.6273 658,62.5C 665.232,78.9266 669.398,96.0933 670.5,114C 670.643,118.955 669.643,123.622 667.5,128C 697.807,134.328 728.14,140.662 758.5,147C 787.087,157.085 816.087,165.752 845.5,173C 862.741,176.411 880.075,177.078 897.5,175C 926.318,170.864 954.985,165.864 983.5,160C 1051.59,139.527 1119.92,119.86 1188.5,101C 1215.95,92.9794 1243.95,89.3127 1272.5,90C 1295.4,91.1978 1313.9,100.698 1328,118.5C 1331.49,124.488 1334.16,130.821 1336,137.5C 1339.15,157.101 1339.81,176.768 1338,196.5C 1333.2,215.296 1322.37,229.463 1305.5,239C 1265.41,261.513 1224.74,262.846 1183.5,243C 1173.05,234.554 1162.05,226.887 1150.5,220C 1145.96,218.459 1141.3,217.626 1136.5,217.5C 1126.99,218.378 1117.65,220.211 1108.5,223C 1079.64,233.066 1050.64,242.732 1021.5,252C 1001.09,256.634 980.425,259.301 959.5,260C 927.501,261.03 895.501,262.03 863.5,263C 840.567,264.253 818.233,268.587 796.5,276C 766.92,286.912 748.753,307.745 742,338.5C 738.005,375.417 735.005,412.417 733,449.5C 728.337,462.156 723.67,474.822 719,487.5C 712.203,506.613 709.203,526.28 710,546.5C 713.2,578.1 714.867,609.767 715,641.5C 710.81,660.309 707.81,679.309 706,698.5C 704.658,715.8 708.658,731.8 718,746.5C 727.87,762.902 739.203,778.235 752,792.5C 773.65,813.803 792.65,837.136 809,862.5C 826.577,893.995 844.911,924.995 864,955.5C 882.709,991.283 897.709,1028.62 909,1067.5C 925.446,1121.29 938.113,1175.95 947,1231.5C 953.24,1275.51 959.573,1319.51 966,1363.5C 970.902,1388.11 976.902,1412.44 984,1436.5C 986.161,1441.49 988.828,1446.16 992,1450.5C 1021.39,1479.22 1050.06,1508.56 1078,1538.5C 1081.96,1542.4 1083.62,1547.07 1083,1552.5C 1073.85,1568.33 1060.01,1576.33 1041.5,1576.5C 1022.88,1575.13 1005.55,1569.63 989.5,1560C 974.05,1551.22 960.383,1540.22 948.5,1527C 924.647,1506.31 900.647,1485.81 876.5,1465.5C 875.686,1463.23 875.186,1460.9 875,1458.5C 879.797,1398.37 868.13,1341.7 840,1288.5C 820.323,1247.63 798.49,1208.13 774.5,1170C 767.277,1163.78 759.277,1158.78 750.5,1155C 745.631,1153.37 740.631,1152.53 735.5,1152.5C 718.495,1155.83 701.495,1159.33 684.5,1163C 674.456,1165.08 664.456,1166.25 654.5,1166.5C 643.415,1148.67 632.582,1130.67 622,1112.5C 619.261,1100.93 616.928,1089.26 615,1077.5C 611.214,1067.93 606.88,1058.59 602,1049.5C 586.974,1025.45 572.974,1000.78 560,975.5C 557.273,972.269 554.106,969.603 550.5,967.5C 546.397,969.885 542.064,971.718 537.5,973C 523.312,975.169 509.312,978.169 495.5,982C 486.268,985.566 480.101,992.066 477,1001.5C 463.885,1033.95 453.552,1067.29 446,1101.5C 443.105,1108.29 439.438,1114.63 435,1120.5C 422.8,1132.37 410.3,1143.87 397.5,1155C 393.167,1155.67 388.833,1155.67 384.5,1155C 374.493,1151.25 364.66,1147.08 355,1142.5C 338.114,1148.11 324.448,1158.11 314,1172.5C 248.642,1256.87 180.642,1339.21 110,1419.5C 93.8349,1438.98 85.3349,1461.48 84.5,1487C 86.2998,1501.46 87.1332,1515.96 87,1530.5C 85.4204,1547.92 75.9204,1556.25 58.5,1555.5C 43.848,1556.09 32.348,1550.42 24,1538.5C 9.24636,1520.02 2.41302,1498.85 3.5,1475C 6.063,1452.83 6.063,1430.66 3.5,1408.5C 2.97138,1400.62 5.30471,1393.78 10.5,1388C 18.633,1383.95 26.9664,1380.29 35.5,1377C 37.6667,1374.83 39.8333,1372.67 42,1370.5C 62.7728,1326.29 84.1061,1282.29 106,1238.5C 119.67,1215.15 134.337,1192.49 150,1170.5C 172.38,1145.27 197.88,1123.94 226.5,1106.5C 234.877,1074.09 247.377,1043.42 264,1014.5C 268.333,1008.17 272.667,1001.83 277,995.5C 288.571,961.119 301.904,927.453 317,894.5C 321,888.5 325,882.5 329,876.5C 336.941,854.677 345.274,833.01 354,811.5C 359.066,798.571 362.566,785.237 364.5,771.5C 363.296,748.855 362.462,726.188 362,703.5C 361.066,685.897 358.4,668.564 354,651.5C 352.747,637.025 352.914,622.525 354.5,608C 354.877,594.783 350.377,583.616 341,574.5C 312.207,530.141 293.207,481.808 284,429.5C 282.492,413.863 282.159,398.197 283,382.5C 286.528,353.889 289.528,325.222 292,296.5C 294.187,272.472 303.187,251.472 319,233.5C 332.638,219.779 347.471,207.613 363.5,197C 380.236,186.964 397.569,177.964 415.5,170C 434.91,163.197 454.243,156.197 473.5,149C 476.754,146.658 478.588,143.491 479,139.5C 480.698,118.173 482.365,96.8393 484,75.5C 486.205,62.0911 491.872,50.4244 501,40.5C 518.641,19.605 540.808,6.93835 567.5,2.5 Z"/></g>
<g><path style="opacity:0.994" fill="#fefffe" d="M 1785.5,596.5 C 1785.5,606.833 1785.5,617.167 1785.5,627.5C 1780.02,656.836 1764.69,679.669 1739.5,696C 1710.12,713.237 1678.46,723.903 1644.5,728C 1612.59,731.348 1580.59,732.348 1548.5,731C 1533.6,730.577 1518.93,728.577 1504.5,725C 1495.94,722.041 1490.44,716.208 1488,707.5C 1484.15,694.882 1484.82,682.549 1490,670.5C 1493.99,664.754 1499.49,662.087 1506.5,662.5C 1521.57,665.058 1536.74,666.725 1552,667.5C 1565.43,667.947 1578.26,665.447 1590.5,660C 1605.38,650.048 1610.88,636.215 1607,618.5C 1605.39,612.609 1602.72,607.275 1599,602.5C 1594.5,598 1590,593.5 1585.5,589C 1570.68,578.088 1555.68,567.421 1540.5,557C 1497.27,523.26 1483.77,480.093 1500,427.5C 1511.48,399.38 1530.65,378.213 1557.5,364C 1607.78,338.174 1661.12,327.84 1717.5,333C 1728.58,334.125 1739.58,335.791 1750.5,338C 1758.83,340.246 1766,344.413 1772,350.5C 1775.91,357.088 1777.41,364.255 1776.5,372C 1777.42,381.731 1775.42,390.731 1770.5,399C 1767.87,401.146 1764.87,402.479 1761.5,403C 1741.86,401.825 1722.2,401.491 1702.5,402C 1671.9,406.397 1660.07,423.563 1667,453.5C 1669.54,459.365 1672.88,464.699 1677,469.5C 1683.74,475.784 1690.57,481.95 1697.5,488C 1712.45,498.615 1727.12,509.615 1741.5,521C 1766.09,540.413 1780.76,565.58 1785.5,596.5 Z"/></g>
<g><path style="opacity:0.995" fill="#fefffe" d="M 1231.5,332.5 C 1266.62,331.483 1301.62,332.983 1336.5,337C 1367.91,340.516 1397.25,350.183 1424.5,366C 1453.01,384.895 1467.35,411.561 1467.5,446C 1466.84,487.347 1448.17,517.347 1411.5,536C 1393.98,544.842 1375.64,551.509 1356.5,556C 1420.28,569.785 1457.45,608.952 1468,673.5C 1469.79,685.447 1470.46,697.447 1470,709.5C 1469.45,718.722 1464.61,724.222 1455.5,726C 1418.83,731.371 1382,735.204 1345,737.5C 1335.55,738.948 1329.21,735.281 1326,726.5C 1325.3,713.502 1324.63,700.502 1324,687.5C 1321.59,628.268 1290.76,600.934 1231.5,605.5C 1230.83,634.169 1230,662.836 1229,691.5C 1228.62,705.542 1221.78,714.708 1208.5,719C 1171.87,726.477 1134.87,730.144 1097.5,730C 1086.32,728.154 1079.82,721.654 1078,710.5C 1075.93,600.172 1074.6,489.838 1074,379.5C 1074.96,365.063 1082.13,355.23 1095.5,350C 1108.51,345.597 1121.85,342.597 1135.5,341C 1167.55,336.96 1199.55,334.126 1231.5,332.5 Z M 1254.5,386.5 C 1280.35,385.504 1296.52,397.504 1303,422.5C 1306.86,442.706 1307.53,463.04 1305,483.5C 1303.41,501.967 1296.24,517.801 1283.5,531C 1268.47,541.097 1251.8,546.263 1233.5,546.5C 1235.76,494.176 1237.93,441.843 1240,389.5C 1244.88,388.245 1249.72,387.245 1254.5,386.5 Z"/></g>
<g><path style="opacity:0.996" fill="#fefffe" d="M 979.5,334.5 C 988.839,334.334 998.173,334.5 1007.5,335C 1020,339.794 1026.83,348.961 1028,362.5C 1028.67,376.5 1028.67,390.5 1028,404.5C 1024.55,505.525 1020.88,606.525 1017,707.5C 1013.34,718.153 1005.84,723.986 994.5,725C 962.161,729.984 929.661,733.484 897,735.5C 878.042,736.202 867.375,727.202 865,708.5C 864.245,604.495 863.079,500.495 861.5,396.5C 861.467,387.132 861.967,377.799 863,368.5C 864.799,357.398 870.966,349.898 881.5,346C 886.406,344.524 891.406,343.524 896.5,343C 924.291,339.888 951.957,337.055 979.5,334.5 Z"/></g>
<g><path style="opacity:0.971" fill="#fefffe" d="M 883.5,798.5 C 886.85,798.335 890.183,798.502 893.5,799C 894.126,799.75 894.626,800.584 895,801.5C 895.275,820.531 894.608,839.531 893,858.5C 886.085,861.009 878.919,861.842 871.5,861C 871,860.5 870.5,860 870,859.5C 869.167,840.835 868.833,822.168 869,803.5C 869.374,802.584 869.874,801.75 870.5,801C 874.94,800.034 879.273,799.201 883.5,798.5 Z"/></g>
<g><path style="opacity:0.969" fill="#fefffe" d="M 910.5,798.5 C 913.978,798.184 917.312,798.684 920.5,800C 927.333,808.167 934.167,816.333 941,824.5C 941.333,816.833 941.667,809.167 942,801.5C 943.822,799.955 945.989,799.288 948.5,799.5C 950.429,799.54 952.262,799.873 954,800.5C 954.479,819.51 954.146,838.51 953,857.5C 952.5,858 952,858.5 951.5,859C 946.572,860.418 941.572,860.751 936.5,860C 928.88,850.591 921.38,841.091 914,831.5C 914.536,840.478 914.87,849.478 915,858.5C 913.178,860.045 911.011,860.712 908.5,860.5C 906.571,860.46 904.738,860.127 903,859.5C 901.854,840.51 901.521,821.51 902,802.5C 904.564,800.376 907.397,799.042 910.5,798.5 Z"/></g>
<g><path style="opacity:0.962" fill="#fefffe" d="M 981.5,798.5 C 988.589,798.116 995.589,798.616 1002.5,800C 1006.66,808.503 1004.16,811.669 995,809.5C 988.646,809.815 986.313,812.815 988,818.5C 993.687,823.189 999.021,828.189 1004,833.5C 1008.32,846.689 1003.82,855.189 990.5,859C 979.855,862.322 969.355,862.155 959,858.5C 958.223,855.571 958.39,852.737 959.5,850C 963.516,849.814 967.516,849.814 971.5,850C 976.669,848.88 978.169,846.046 976,841.5C 970.536,837.279 965.536,832.612 961,827.5C 957.724,818.682 959.557,811.182 966.5,805C 971.29,802.133 976.29,799.967 981.5,798.5 Z"/></g>
<g><path style="opacity:0.965" fill="#fefffe" d="M 1080.5,798.5 C 1083.52,798.335 1086.52,798.502 1089.5,799C 1090.93,799.465 1092.1,800.299 1093,801.5C 1094.91,809.309 1097.91,816.642 1102,823.5C 1106.88,816.043 1110.71,808.043 1113.5,799.5C 1126.44,796.725 1129.61,801.058 1123,812.5C 1119.09,820.667 1114.42,828.333 1109,835.5C 1108.57,843.188 1107.9,850.854 1107,858.5C 1106.5,859 1106,859.5 1105.5,860C 1098.3,861.594 1091.14,861.76 1084,860.5C 1083.67,852.5 1083.33,844.5 1083,836.5C 1075.17,826.657 1069,815.824 1064.5,804C 1064.59,802.893 1064.92,801.893 1065.5,801C 1070.6,800.002 1075.6,799.169 1080.5,798.5 Z"/></g>
<g><path style="opacity:0.972" fill="#fefffe" d="M 1200.5,798.5 C 1203.85,798.335 1207.18,798.502 1210.5,799C 1212.07,800.684 1213.07,802.684 1213.5,805C 1212.36,818.467 1212.19,831.967 1213,845.5C 1215.11,849.501 1218.27,850.501 1222.5,848.5C 1222.83,847.167 1223.17,845.833 1223.5,844.5C 1222.22,830.471 1222.22,816.471 1223.5,802.5C 1228.66,800.051 1234.16,798.718 1240,798.5C 1242.35,798.305 1244.35,798.972 1246,800.5C 1246.48,817.178 1246.14,833.844 1245,850.5C 1242,854.926 1237.83,857.759 1232.5,859C 1221.38,862.534 1210.38,862.201 1199.5,858C 1192.94,854.434 1189.11,848.934 1188,841.5C 1187.5,829.48 1187.17,817.48 1187,805.5C 1187.27,803.671 1188.11,802.171 1189.5,801C 1193.28,800.082 1196.95,799.249 1200.5,798.5 Z"/></g>
<g><path style="opacity:0.972" fill="#fefffe" d="M 1344.5,798.5 C 1354.89,798.13 1365.22,798.63 1375.5,800C 1390.57,803.724 1394.73,812.558 1388,826.5C 1384.7,829.567 1380.87,831.733 1376.5,833C 1387.88,838.253 1392.54,847.087 1390.5,859.5C 1383.27,861.112 1375.94,861.779 1368.5,861.5C 1368.8,855.511 1367.64,849.845 1365,844.5C 1361.92,842.069 1358.42,841.069 1354.5,841.5C 1354.67,846.179 1354.5,850.845 1354,855.5C 1353.53,856.931 1352.7,858.097 1351.5,859C 1344.88,860.378 1338.22,860.711 1331.5,860C 1331,859.5 1330.5,859 1330,858.5C 1329.33,840.167 1329.33,821.833 1330,803.5C 1330.5,802.333 1331.33,801.5 1332.5,801C 1336.64,800.161 1340.64,799.327 1344.5,798.5 Z M 1355.5,807.5 C 1362.67,807.439 1366,811.106 1365.5,818.5C 1365.72,825.423 1362.55,829.757 1356,831.5C 1355.5,831.167 1355,830.833 1354.5,830.5C 1355.47,822.89 1355.8,815.223 1355.5,807.5 Z"/></g>
<g><path style="opacity:0.967" fill="#fefffe" d="M 1426.5,798.5 C 1455.42,800.017 1465.92,814.683 1458,842.5C 1447.97,858.074 1433.8,863.907 1415.5,860C 1401.25,855.908 1393.92,846.408 1393.5,831.5C 1395.89,811.819 1406.89,800.819 1426.5,798.5 Z M 1425.5,809.5 C 1429.18,808.725 1431.68,810.059 1433,813.5C 1435,824.167 1435,834.833 1433,845.5C 1429.67,851.642 1426.01,851.975 1422,846.5C 1419.31,836.917 1418.97,827.251 1421,817.5C 1421.75,814.316 1423.25,811.649 1425.5,809.5 Z"/></g>
<g><path style="opacity:0.97" fill="#fefffe" d="M 1495.5,798.5 C 1500.18,798.334 1504.85,798.501 1509.5,799C 1511.63,799.759 1512.97,801.259 1513.5,803.5C 1506.49,819.024 1498.82,834.191 1490.5,849C 1498.52,848.641 1506.52,848.808 1514.5,849.5C 1517.01,856.995 1514.34,860.495 1506.5,860C 1491.5,860.667 1476.5,860.667 1461.5,860C 1459.81,858.087 1459.31,855.92 1460,853.5C 1467.04,839.256 1474.21,825.089 1481.5,811C 1475.17,810.667 1468.83,810.333 1462.5,810C 1461.39,807.263 1461.22,804.429 1462,801.5C 1462.75,800.874 1463.58,800.374 1464.5,800C 1475.01,799.83 1485.34,799.33 1495.5,798.5 Z"/></g>
<g><path style="opacity:0.967" fill="#fefffe" d="M 1527.5,798.5 C 1532.1,798.2 1536.6,798.533 1541,799.5C 1543,810.134 1545,820.8 1547,831.5C 1547.87,835.984 1549.2,840.317 1551,844.5C 1552.84,839.639 1554.67,834.805 1556.5,830C 1553.01,820.543 1551.34,810.877 1551.5,801C 1559.05,798.954 1566.72,798.287 1574.5,799C 1575,799.5 1575.5,800 1576,800.5C 1577.85,815.405 1580.85,830.072 1585,844.5C 1587.06,840.323 1588.73,835.99 1590,831.5C 1592.82,820.88 1595.32,810.213 1597.5,799.5C 1601.55,798.503 1605.55,798.836 1609.5,800.5C 1609.99,801.446 1610.32,802.446 1610.5,803.5C 1606.97,822.258 1601.14,840.258 1593,857.5C 1591.79,859.049 1590.29,860.215 1588.5,861C 1583.3,861.241 1578.13,861.741 1573,862.5C 1571.37,862.122 1569.87,861.456 1568.5,860.5C 1566.5,856.833 1564.5,853.167 1562.5,849.5C 1560.53,852.246 1559.03,855.246 1558,858.5C 1557.1,859.701 1555.93,860.535 1554.5,861C 1549.14,861.264 1543.8,861.764 1538.5,862.5C 1537.06,862.281 1535.73,861.781 1534.5,861C 1524.13,842.227 1518.46,822.227 1517.5,801C 1520.99,800.262 1524.32,799.429 1527.5,798.5 Z"/></g>
<g><path style="opacity:0.965" fill="#fefffe" d="M 1642.5,798.5 C 1670.17,799.656 1681,813.656 1675,840.5C 1668.2,854.164 1657.03,861.164 1641.5,861.5C 1617.83,859.664 1607.66,846.997 1611,823.5C 1616.16,808.347 1626.66,800.013 1642.5,798.5 Z M 1641.5,809.5 C 1644.65,808.959 1647.15,809.959 1649,812.5C 1652.28,823.514 1652.28,834.514 1649,845.5C 1645.67,851.642 1642.01,851.975 1638,846.5C 1636.45,837.228 1636.11,827.895 1637,818.5C 1637.45,814.925 1638.95,811.925 1641.5,809.5 Z"/></g>
<g><path style="opacity:0.969" fill="#fefffe" d="M 1703.5,798.5 C 1705.86,798.337 1708.19,798.503 1710.5,799C 1711.67,799.5 1712.5,800.333 1713,801.5C 1713.6,816.902 1712.93,832.235 1711,847.5C 1705.99,857.843 1697.66,862.51 1686,861.5C 1682.08,861.545 1678.25,861.045 1674.5,860C 1673.39,857.263 1673.22,854.429 1674,851.5C 1677.53,850.869 1681.03,850.036 1684.5,849C 1685.89,847.829 1686.73,846.329 1687,844.5C 1687.39,830.822 1687.39,817.155 1687,803.5C 1687.65,801.277 1689.15,800.11 1691.5,800C 1695.69,799.824 1699.69,799.324 1703.5,798.5 Z"/></g>
<g><path style="opacity:0.973" fill="#fefffe" d="M 1732.5,798.5 C 1735.85,798.335 1739.18,798.502 1742.5,799C 1743.7,799.903 1744.53,801.069 1745,802.5C 1744.44,816.806 1744.44,831.14 1745,845.5C 1747.33,849.51 1750.66,850.51 1755,848.5C 1754.36,833.137 1754.53,817.803 1755.5,802.5C 1760.66,800.051 1766.16,798.718 1772,798.5C 1774.35,798.305 1776.35,798.972 1778,800.5C 1778.56,817.18 1778.22,833.847 1777,850.5C 1774.04,854.912 1769.87,857.745 1764.5,859C 1753.38,862.534 1742.38,862.201 1731.5,858C 1724.44,854.277 1720.61,848.444 1720,840.5C 1719.81,829.454 1719.31,818.454 1718.5,807.5C 1718.98,805.051 1719.98,802.885 1721.5,801C 1725.28,800.082 1728.95,799.249 1732.5,798.5 Z"/></g>
<g><path style="opacity:0.974" fill="#fefffe" d="M 1036.5,799.5 C 1045.17,799.334 1053.84,799.5 1062.5,800C 1064.05,803.565 1063.72,806.899 1061.5,810C 1057.18,810.499 1052.85,810.666 1048.5,810.5C 1048.27,826.546 1047.44,842.546 1046,858.5C 1040.31,860.056 1034.48,861.056 1028.5,861.5C 1026.41,861.514 1024.57,860.848 1023,859.5C 1022.5,843.503 1022.33,827.503 1022.5,811.5C 1017.5,811.5 1012.5,811.5 1007.5,811.5C 1007.64,809.738 1007.31,808.071 1006.5,806.5C 1006.86,804.267 1007.86,802.434 1009.5,801C 1018.68,800.83 1027.68,800.33 1036.5,799.5 Z"/></g>
<g><path style="opacity:0.975" fill="#fefffe" d="M 1157.5,799.5 C 1165.84,799.334 1174.17,799.5 1182.5,800C 1184.05,803.565 1183.72,806.899 1181.5,810C 1177.18,810.499 1172.85,810.666 1168.5,810.5C 1168.37,826.571 1167.53,842.571 1166,858.5C 1160.31,860.056 1154.48,861.056 1148.5,861.5C 1145.99,861.665 1144.16,860.665 1143,858.5C 1142.5,842.837 1142.33,827.17 1142.5,811.5C 1137.5,811.5 1132.5,811.5 1127.5,811.5C 1127.5,808.167 1127.5,804.833 1127.5,801.5C 1137.64,800.906 1147.64,800.24 1157.5,799.5 Z"/></g>
<g><path style="opacity:0.971" fill="#fefffe" d="M 1280.5,799.5 C 1289.17,799.5 1297.83,799.5 1306.5,799.5C 1306.82,802.898 1306.49,806.232 1305.5,809.5C 1300.9,810.443 1296.23,810.777 1291.5,810.5C 1291.33,825.842 1290.83,841.176 1290,856.5C 1289.35,858.723 1287.85,859.89 1285.5,860C 1280.82,860.35 1276.15,860.85 1271.5,861.5C 1268.99,861.665 1267.16,860.665 1266,858.5C 1265.5,842.837 1265.33,827.17 1265.5,811.5C 1260.82,811.666 1256.15,811.499 1251.5,811C 1250.55,807.943 1250.22,804.777 1250.5,801.5C 1260.64,800.906 1270.64,800.24 1280.5,799.5 Z"/></g>
<g><path style="opacity:0.967" fill="#fefffe" d="M 1167.5,904.5 C 1172.64,904.638 1177.64,905.471 1182.5,907C 1184.81,909.939 1185.15,913.105 1183.5,916.5C 1179.15,916.334 1174.82,916.501 1170.5,917C 1166.62,918.96 1165.79,921.793 1168,925.5C 1172.67,929.5 1177.33,933.5 1182,937.5C 1188.94,954.609 1183.11,964.442 1164.5,967C 1156.06,967.937 1147.73,967.604 1139.5,966C 1138.17,963 1138.17,960 1139.5,957C 1144.17,956.667 1148.83,956.333 1153.5,956C 1155.71,955.064 1157.04,953.398 1157.5,951C 1152,945.5 1146.5,940 1141,934.5C 1137.37,925.007 1139.54,917.174 1147.5,911C 1153.88,907.485 1160.54,905.318 1167.5,904.5 Z"/></g>
<g><path style="opacity:0.972" fill="#fefffe" d="M 1207.5,905.5 C 1218.4,904.8 1229.07,905.967 1239.5,909C 1248.51,914.53 1251.35,922.363 1248,932.5C 1244.49,940.021 1238.66,944.854 1230.5,947C 1225.27,948.546 1219.94,949.38 1214.5,949.5C 1214.67,954.844 1214.5,960.177 1214,965.5C 1213.5,966 1213,966.5 1212.5,967C 1207.35,967.647 1202.18,968.147 1197,968.5C 1194.37,968.419 1192.04,967.752 1190,966.5C 1189.33,947.5 1189.33,928.5 1190,909.5C 1195.72,907.25 1201.55,905.917 1207.5,905.5 Z M 1215.5,914.5 C 1222.24,915.585 1225.24,919.585 1224.5,926.5C 1225.21,934.129 1221.87,938.463 1214.5,939.5C 1215.05,931.178 1215.39,922.844 1215.5,914.5 Z"/></g>
<g><path style="opacity:0.969" fill="#fefffe" d="M 1281.5,905.5 C 1295.14,903.874 1306.31,908.208 1315,918.5C 1322.93,936.419 1319.1,951.253 1303.5,963C 1290.49,968.964 1277.49,968.964 1264.5,963C 1253.96,954.721 1250.13,943.888 1253,930.5C 1254.81,922.695 1258.98,916.529 1265.5,912C 1270.61,908.935 1275.94,906.769 1281.5,905.5 Z M 1284.5,915.5 C 1287.56,915.444 1289.73,916.778 1291,919.5C 1294.27,930.504 1294.27,941.504 1291,952.5C 1287.67,958.642 1284.01,958.975 1280,953.5C 1278.44,943.894 1278.11,934.228 1279,924.5C 1279.86,920.763 1281.69,917.763 1284.5,915.5 Z"/></g>
<g><path style="opacity:0.972" fill="#fefffe" d="M 1336.5,905.5 C 1346.51,905.334 1356.51,905.5 1366.5,906C 1374.76,906.701 1380.92,910.534 1385,917.5C 1387.36,929.602 1382.53,937.102 1370.5,940C 1383.01,944.866 1387.68,953.7 1384.5,966.5C 1377.58,968.053 1370.58,968.553 1363.5,968C 1362.85,963.17 1362.01,958.337 1361,953.5C 1357.74,948.524 1353.74,947.524 1349,950.5C 1348.78,955.22 1348.28,959.887 1347.5,964.5C 1340.36,967.27 1333.03,967.937 1325.5,966.5C 1324.19,948.182 1323.69,929.849 1324,911.5C 1324.47,910.069 1325.3,908.903 1326.5,908C 1329.95,907.115 1333.29,906.282 1336.5,905.5 Z M 1350.5,914.5 C 1357.77,914.174 1360.77,917.674 1359.5,925C 1360.35,932.5 1357.18,937 1350,938.5C 1349.64,930.495 1349.81,922.495 1350.5,914.5 Z"/></g>
<g><path style="opacity:0.965" fill="#fefffe" d="M 1436.5,905.5 C 1444.06,905.604 1446.4,909.271 1443.5,916.5C 1438.58,916.842 1433.75,917.508 1429,918.5C 1428.56,933.51 1427.89,948.51 1427,963.5C 1426.63,964.416 1426.13,965.25 1425.5,966C 1418.55,967.397 1411.55,967.73 1404.5,967C 1403.87,966.25 1403.37,965.416 1403,964.5C 1402.5,949.17 1402.33,933.837 1402.5,918.5C 1397.82,918.666 1393.15,918.499 1388.5,918C 1387.17,914.667 1387.17,911.333 1388.5,908C 1404.68,907.494 1420.68,906.661 1436.5,905.5 Z"/></g>
<g><path style="opacity:0.972" fill="#fefffe" d="M 1457.5,905.5 C 1462.18,905.334 1466.85,905.501 1471.5,906C 1472.13,906.75 1472.63,907.584 1473,908.5C 1472.77,922.828 1472.77,937.161 1473,951.5C 1474.77,956.218 1477.94,957.551 1482.5,955.5C 1482.98,940.135 1483.32,924.801 1483.5,909.5C 1486.79,907.279 1490.46,906.113 1494.5,906C 1498.42,905.207 1502.26,905.374 1506,906.5C 1506.87,908.581 1507.37,910.747 1507.5,913C 1506.78,928.169 1505.95,943.336 1505,958.5C 1501.39,962.391 1496.89,964.891 1491.5,966C 1482.17,968 1472.83,968 1463.5,966C 1456,963.833 1451.17,959 1449,951.5C 1447.54,937.528 1447.21,923.528 1448,909.5C 1450.89,907.288 1454.05,905.954 1457.5,905.5 Z"/></g>
</svg>
